<svg width="50" height="50" viewBox="0 0 50 50" fill="none" xmlns="http://www.w3.org/2000/svg">

  <path d="M8.85455 22.2618C7.58036 22.2618 6.472 22.0262 5.52946 21.5549C4.58691 21.0662 3.85382 20.3942 3.33018 19.5389C2.824 18.6662 2.57091 17.6538 2.57091 16.5018V8.38545C2.57091 7.23345 2.824 6.22982 3.33018 5.37454C3.85382 4.50182 4.58691 3.82982 5.52946 3.35854C6.472 2.86982 7.58036 2.62545 8.85455 2.62545C10.1462 2.62545 11.2545 2.86982 12.1796 3.35854C13.1222 3.82982 13.8465 4.50182 14.3527 5.37454C14.8764 6.22982 15.1382 7.23345 15.1382 8.38545V16.5018C15.1382 17.6538 14.8764 18.6662 14.3527 19.5389C13.8465 20.3942 13.1222 21.0662 12.1796 21.5549C11.2545 22.0262 10.1462 22.2618 8.85455 22.2618ZM8.85455 18.8582C9.64 18.8582 10.2247 18.6575 10.6087 18.256C11.0102 17.8371 11.2109 17.2524 11.2109 16.5018V8.38545C11.2109 7.61745 11.0189 7.03273 10.6349 6.63127C10.2509 6.22982 9.65746 6.02909 8.85455 6.02909C8.05164 6.02909 7.45818 6.22982 7.07418 6.63127C6.69018 7.03273 6.49818 7.61745 6.49818 8.38545V16.5018C6.49818 17.2524 6.69018 17.8371 7.07418 18.256C7.47564 18.6575 8.06909 18.8582 8.85455 18.8582ZM18.4269 22V2.88727H24.9461C26.2901 2.88727 27.4596 3.14036 28.4545 3.64654C29.4669 4.15272 30.2436 4.85963 30.7847 5.76727C31.3432 6.67491 31.6225 7.73963 31.6225 8.96145C31.6225 10.1658 31.3432 11.2305 30.7847 12.1556C30.2261 13.0633 29.4494 13.7702 28.4545 14.2764C27.4596 14.7825 26.2901 15.0356 24.9461 15.0356H22.3541V22H18.4269ZM22.3541 11.5011H24.9461C25.784 11.5011 26.4472 11.2742 26.936 10.8204C27.4421 10.3491 27.6952 9.72945 27.6952 8.96145C27.6952 8.19345 27.4421 7.58254 26.936 7.12873C26.4472 6.65745 25.784 6.42182 24.9461 6.42182H22.3541V11.5011ZM34.1257 22V2.88727H40.645C41.989 2.88727 43.1585 3.14036 44.1534 3.64654C45.1657 4.15272 45.9425 4.85963 46.4836 5.76727C47.0421 6.67491 47.3214 7.73963 47.3214 8.96145C47.3214 10.1658 47.0421 11.2305 46.4836 12.1556C45.925 13.0633 45.1483 13.7702 44.1534 14.2764C43.1585 14.7825 41.989 15.0356 40.645 15.0356H38.053V22H34.1257ZM38.053 11.5011H40.645C41.4828 11.5011 42.1461 11.2742 42.6348 10.8204C43.141 10.3491 43.3941 9.72945 43.3941 8.96145C43.3941 8.19345 43.141 7.58254 42.6348 7.12873C42.1461 6.65745 41.4828 6.42182 40.645 6.42182H38.053V11.5011Z" fill="#52DEE5"/>
  <path d="M11.2371 46L11.944 41.5491H3.17309L3.592 38.9309L13.1222 26.9135H14.5884L4.84873 39.2975L4.66545 40.3709H12.1273L12.9913 35.0036H14.3004L12.5462 46H11.2371ZM22.5898 46V30.5527H17.7461V26.8873H31.3607V30.5527H26.517V46H22.5898Z" fill="#92DCE5"/>
	
  <style>
    @media (prefers-color-scheme:light){:root{filter:invert(100%)}}
  </style>
</svg>
